            <svg class="mr-7" width="151" height="100" viewBox="0 0 151 100" fill="none" xmlns="http://www.w3.org/2000/svg">
                <g clip-path="url(#clip0_1065_26109)">
                    <g clip-path="url(#clip1_1065_26109)">
                        <rect width="50" height="50" transform="translate(0.535645)" fill="#FFF599" />
                        <path fill-rule="evenodd" clip-rule="evenodd" d="M15.4982 0.0860481C7.09398 0.939548 0.535645 8.03722 0.535645 16.6667V33.3333C0.535645 42.5381 7.99757 50 17.2023 50V16.6667H50.5356C50.5356 7.46192 43.0737 0 33.869 0H17.2023C16.627 0 16.0585 0.0291481 15.4982 0.0860481Z" fill="#2563EB" />
                        <path d="M33.8691 33.3334H50.5358C50.5358 42.5382 43.0739 50.0001 33.8691 50.0001V33.3334Z" fill="#2563EB" />
                        <rect width="50" height="50" transform="translate(50.5356)" fill="#F48FB1" />
                        <path fill-rule="evenodd" clip-rule="evenodd" d="M67.2023 0C57.9976 0 50.5356 7.46192 50.5356 16.6667V33.3333C50.5356 33.3334 50.5356 33.3334 50.5356 33.3334C50.5356 42.5382 57.9976 50.0001 67.2023 50.0001H83.869C87.3208 50.0001 90.5275 48.9507 93.1875 47.1536C95.1756 45.8105 96.8582 44.0498 98.1096 41.9973C99.6489 39.4726 100.536 36.5065 100.536 33.3333V16.6667C100.536 7.46192 93.0738 0 83.8691 0H83.869H67.2023ZM83.8691 33.3334V16.6667H67.2023V33.3334H83.8691Z" fill="#2D67F8" />
                        <rect width="50" height="50" transform="translate(100.536)" fill="#2D67F8" />
                        <path fill-rule="evenodd" clip-rule="evenodd" d="M117.202 0C107.998 0 100.536 7.46192 100.536 16.6667V33.3333C100.536 33.3334 100.536 33.3334 100.536 33.3334C100.536 42.5382 107.998 50.0001 117.202 50.0001H133.869C137.321 50.0001 140.528 48.9507 143.188 47.1536C145.176 45.8105 146.858 44.0498 148.11 41.9973C149.649 39.4726 150.536 36.5065 150.536 33.3333V16.6667C150.536 7.46192 143.074 0 133.869 0H133.869H117.202ZM133.869 33.3334V16.6667H117.202V33.3334H133.869Z" fill="#F48FB1" />
                        <rect width="50" height="50" transform="translate(0.535645 50)" fill="#F48FB1" />
                        <path fill-rule="evenodd" clip-rule="evenodd" d="M0.535645 66.6667C0.535645 58.0372 7.09398 50.9395 15.4982 50.086C16.0585 50.0291 16.627 50 17.2023 50H33.869C43.0737 50 50.5356 57.4619 50.5356 66.6667H17.2023V83.3334H50.5356C50.5356 92.5382 43.0737 100 33.869 100H17.2023C7.99756 100 0.535645 92.5382 0.535645 83.3334C0.535645 83.3334 0.535645 83.3334 0.535645 83.3333V66.6667Z" fill="#90EE90" />
                        <rect width="50" height="50" transform="translate(50.5356 50)" fill="#FFF599" />
                        <path fill-rule="evenodd" clip-rule="evenodd" d="M50.5356 66.6667C50.5356 57.4619 57.9976 50 67.2023 50V67.7084H83.8691V50C93.0738 50 100.536 57.4619 100.536 66.6667V83.3333C100.536 92.5381 93.0738 100 83.8691 100V82.2917H67.2023V100C57.9976 100 50.5356 92.5381 50.5356 83.3333V82.2917V67.7084V66.6667Z" fill="#5EEAD4" />
                        <rect width="50" height="50" transform="translate(100.536 50)" fill="#99F6E4" />
                        <path fill-rule="evenodd" clip-rule="evenodd" d="M100.536 66.6667C100.536 66.5589 100.537 66.4514 100.539 66.3442C100.54 66.2798 100.542 66.2156 100.543 66.1514C100.816 57.1851 108.17 50 117.202 50H133.869C133.869 50 133.869 50 133.869 50C143.074 50 150.536 57.4619 150.536 66.6667V83.3333C150.536 92.5381 143.074 100 133.869 100V66.6667H117.202V100C107.998 100 100.536 92.5381 100.536 83.3333V66.6667Z" fill="#2563EB" />
                    </g>
                </g>
                <defs>
                    <clipPath id="clip0_1065_26109">
                        <path d="M0.535645 16.6667C0.535645 7.46193 7.99757 0 17.2023 0H133.869C143.074 0 150.536 7.46192 150.536 16.6667V83.3333C150.536 92.5381 143.074 100 133.869 100H17.2023C7.99757 100 0.535645 92.5381 0.535645 83.3333V16.6667Z" fill="white" />
                    </clipPath>
                    <clipPath id="clip1_1065_26109">
                        <rect x="0.535645" width="150" height="100" rx="16" fill="white" />
                    </clipPath>
                </defs>
            </svg>